<?xml version="1.0" encoding="utf-8"?>
<!-- Generator: Adobe Illustrator 22.1.0, SVG Export Plug-In . SVG Version: 6.00 Build 0)  -->
<svg version="1.1" id="Layer_1" xmlns="http://www.w3.org/2000/svg" xmlns:xlink="http://www.w3.org/1999/xlink" x="0px" y="0px"
	 viewBox="0 0 1032 594" style="enable-background:new 0 0 1032 594;" xml:space="preserve">
<style type="text/css">
	.st0{fill:#D27497;}
	.st1{display:none;fill:#D27497;}
	.st2{fill:#FFFFFF;}
</style>
<g>
	<g>
		<g>
			<path class="st0" d="M507.6,492.5l-20.6-5.5c5.7,1.5,11.5-1.9,13.1-7.5c1.5-5.7-1.9-11.5-7.5-13.1l-14.7-3.9
				c-3.3-16.2-1.9-57.8,3.1-76.5c1.9-7.2,7.7-14.9,14.3-23.8c9.8-13.2,22-29.5,28.3-53.1c10.9-40.8-12.1-74.5-42.8-87.7l8.5-31.9
				c1.5-5.7-1.9-11.5-7.5-13.1c-5.7-1.5-11.5,1.9-13.1,7.5l-8.4,31.3c-19.9-4-54.4-8.9-90.8-14.2c-45.4-6.5-92.4-13.2-110.4-18.1
				c-31-8.3-45.6-35.8-43.2-44.7c4.6-17-5.6-34.6-22.6-39.2s-34.6,5.6-39.2,22.6L115.5,266c-3.6,13.4,2,27.1,12.8,34.5L114,354
				c-1.5,5.7,1.9,11.5,7.5,13.1c5.7,1.5,11.5-1.9,13.1-7.5l14.3-53.4c12.4-1,23.4-9.2,27.6-21.4c13-24.8,76.2-22.2,135.4,5.7
				c37.1,17.4,76,48,63.7,76.9c-5.3,12.4-20.8,41.7-51.6,54l-17-4.5c-5.7-1.5-11.5,1.9-13.1,7.5c-1.5,5.7,1.9,11.5,7.5,13.1
				L74.8,376.6c-17-4.6-34.6,5.6-39.2,22.6l-5.5,20.6c-4.6,17,5.6,34.6,22.6,39.2l432.8,115.8c17,4.6,34.6-5.6,39.2-22.6l5.5-20.6
				C534.8,514.6,524.6,497,507.6,492.5z M156.7,277.1c-1.5,5.7-7.4,9.1-13.1,7.5c-5.7-1.5-9.1-7.4-7.5-13.1l38.6-144.3
				c1.5-5.7,7.4-9.1,13.1-7.5c5.7,1.5,9.1,7.4,7.5,13.1L156.7,277.1z M395.2,375.6C410.5,339.8,382,299.8,321,271
				c-46.7-22-101.3-31.4-135.5-19l21.3-79.7c10.4,13.7,26.6,25.8,46.9,31.2c19.2,5.1,66.8,12,112.9,18.6c41.3,5.9,84,12,98.7,16
				c25,6.7,46.7,31.8,37.7,65.3c-5.2,19.6-15.6,33.5-24.8,45.8c-7.6,10.2-14.8,19.9-17.8,31.1c-4.4,16.5-7,52-4.8,76l-101.7-27.2
				C376.4,412.9,389,390,395.2,375.6z M504.1,546.7c-1.5,5.7-7.4,9.1-13.1,7.5L58.3,438.5c-5.7-1.5-9.1-7.4-7.5-13.1l5.5-20.6
				c1.5-5.7,7.4-9.1,13.1-7.5l432.8,115.8c5.7,1.5,9.1,7.4,7.5,13.1L504.1,546.7z"/>
			<path class="st1" d="M520.1,363.3c5.7,1.5,11.5-1.9,13.1-7.5l27.6-103c1.5-5.7-1.9-11.5-7.5-13.1c-5.7-1.5-11.5,1.9-13.1,7.5
				L523.6,309l-11,41.2C511,355.9,514.4,361.8,520.1,363.3z"/>
		</g>
	</g>
</g>
<g>
	<g>
		<g>
			<path class="st0" d="M519.1,492l20.9-4.9c-5.8,1.3-11.5-2.2-12.9-8c-1.3-5.7,2.3-11.5,8.1-12.8l15-3.5
				c3.9-16.1,3.9-57.7-0.4-76.5c-1.7-7.3-7.2-15.2-13.6-24.3c-9.4-13.5-21.1-30.2-26.6-54c-9.5-41.1,14.8-74.1,46.2-86.3l-7.5-32.1
				c-1.3-5.7,2.3-11.5,8.1-12.8s11.5,2.2,12.9,8l7.3,31.6c20.2-3.4,55-7.2,91.9-11.3c45.9-5.1,93.4-10.3,111.7-14.5
				c31.5-7.3,47.2-34.3,45.1-43.3c-4-17.2,6.9-34.4,24.2-38.5c17.3-4,34.6,6.7,38.6,23.9l33.7,145.5c3.1,13.5-3,27-14.1,34.1
				l12.5,53.9c1.3,5.7-2.3,11.5-8.1,12.8c-5.8,1.3-11.5-2.2-12.9-8l-12.5-53.9c-12.4-1.4-23.2-9.9-27-22.3
				c-12.2-25.2-75.8-24.7-136.4,1.4c-37.9,16.2-78.2,45.6-66.8,74.8c4.9,12.6,19.5,42.4,50,55.7l17.2-4c5.8-1.3,11.5,2.2,12.9,8
				s-2.3,11.5-8.1,12.8L958.7,390c17.3-4,34.6,6.7,38.6,23.9l4.8,20.8c4,17.2-6.9,34.4-24.2,38.5l-439.6,102
				c-17.3,4-34.6-6.7-38.6-23.9l-4.8-20.8C490.9,513.3,501.8,496,519.1,492z M879.8,287.9c1.3,5.7,7.1,9.3,12.9,8
				c5.8-1.3,9.4-7.1,8.1-12.8L867,137.6c-1.3-5.7-7.1-9.3-12.9-8c-5.8,1.3-9.4,7.1-8.1,12.8L879.8,287.9z M636.3,378.8
				c-14.1-36.3,16-75.4,78.4-102.2c47.8-20.5,103.1-28.2,137-14.6l-18.6-80.3c-10.9,13.3-27.7,25-48.3,29.7
				c-19.5,4.5-67.7,9.8-114.2,15c-41.8,4.6-84.9,9.3-99.9,12.8c-25.4,5.9-48.1,30.3-40.3,64.1c4.6,19.7,14.6,34,23.4,46.6
				c7.3,10.5,14.2,20.4,16.9,31.7c3.9,16.7,5.2,52.2,2.1,76.2l103.3-24C653.9,416.6,642,393.3,636.3,378.8z M520.7,546.4
				c1.3,5.7,7.1,9.3,12.9,8l439.6-102c5.8-1.3,9.4-7.1,8.1-12.8l-4.8-20.8c-1.3-5.7-7.1-9.3-12.9-8l-439.6,102
				c-5.8,1.3-9.4,7.1-8.1,12.8L520.7,546.4z"/>
			<path class="st1" d="M511.1,362.5c-5.8,1.3-11.5-2.2-12.9-8l-24.1-103.9c-1.3-5.7,2.3-11.5,8.1-12.8c5.8-1.3,11.5,2.2,12.9,8
				l14.5,62.3l9.6,41.6C520.5,355.4,516.9,361.1,511.1,362.5z"/>
		</g>
	</g>
</g>
<g>
	<path class="st0" d="M460.2,75.9c-10.7,0-19.3-8.6-19.3-19.3s8.6-19.3,19.3-19.3c10.7,0,19.3,8.6,19.3,19.3c0,5.1-2,10-5.6,13.6
		C470.2,73.8,465.3,75.9,460.2,75.9z"/>
	<path class="st0" d="M484.3,141.2l26.6-28.2l3.8,3.6l-41.5,39.2L484.3,141.2z"/>
	<path class="st0" d="M516.5,107.1l41.1-43.6c0.1-0.1,0.1-0.2,0.1-0.4c-0.8-2.6-0.1-5.4,1.8-7.3l15-15.2c2.8-2.8,7.4-2.8,10.2,0
		l2.2,2.2c2.8,2.8,2.8,7.4,0,10.2l-15.1,15.1c-1.4,1.4-3.2,2.1-5.2,2.1c-0.8,0-1.5-0.1-2.3-0.4h0.1c-0.1,0-0.2,0-0.3,0.1l-43.8,41.3
		L516.5,107.1z M579.7,43.8c-0.9,0-1.7,0.3-2.3,1l-13.8,13.8c-1.3,1.3-1.3,3.4,0,4.7l0,0l0.9,0.9c1.3,1.3,3.4,1.3,4.7,0L583,50.4
		c1.3-1.3,1.3-3.4,0-4.7l-0.9-0.9C581.3,44.1,580.5,43.8,579.7,43.8L579.7,43.8z"/>
</g>
<path class="st2" d="M470.3,74l1.5-1c1.9-1.3,3.5-2.9,4.8-4.8l1-1.5l75.8,81l-2.1,2.1L470.3,74z"/>
<g>
	<path class="st0" d="M592,185.8l-69.1-73.9l42-39.6c3.1,0.6,6.3-0.3,8.5-2.6l15.1-15.1c3.7-3.7,3.7-9.7,0-13.4l-2.2-2.2
		c-3.7-3.7-9.7-3.7-13.4,0l-15.1,15.1c-2.2,2.2-3.2,5.4-2.6,8.5l-39.3,41.7l-36.2-38.7c5-10.8,0.3-23.6-10.5-28.6
		s-23.6-0.3-28.6,10.5s-0.3,23.6,10.5,28.6c5.7,2.7,12.4,2.7,18.1,0l39.1,36.5l-67.9,72c-0.7,0.8-0.6,1.9,0.1,2.6
		c0.7,0.6,1.8,0.6,2.5,0l72.3-68.1l74.2,69.3c0.8,0.7,1.9,0.6,2.6-0.1C592.7,187.6,592.7,186.5,592,185.8L592,185.8z M558.6,64.4
		c0.5-0.5,0.6-1.2,0.4-1.8c-0.6-2.1-0.1-4.3,1.5-5.8l15-15.1c2.3-2.2,5.9-2.2,8.2,0l2.2,2.2c2.2,2.3,2.2,5.9,0,8.2l-15.1,15.1
		c-1.5,1.5-3.8,2.1-5.8,1.5c-0.6-0.2-1.3,0-1.8,0.4l-42.8,40.1l-1.9-2.1L558.6,64.4z M447.6,69.2c-7-7-7-18.2,0-25.2s18.2-7,25.2,0
		s7,18.2,0,25.2c-3.3,3.3-7.9,5.2-12.6,5.2S450.9,72.5,447.6,69.2z M485.4,142.3l25.6-27.2l1.6,1.5L485.4,142.3z M516.7,115.4
		L516.7,115.4c0-0.1-0.1-0.2-0.1-0.2l-44-41c2-1.4,3.8-3.2,5.2-5.2l41.2,44.1l33.3,35.6L516.7,115.4z"/>
	<path class="st0" d="M563.4,65.1c1.9,1.9,4.9,1.9,6.7,0l13.8-13.8c1.9-1.9,1.9-4.9,0-6.7l-0.9-0.9c-1.9-1.9-4.9-1.9-6.7,0
		l-13.8,13.8c-1.9,1.9-1.9,4.9,0,6.7L563.4,65.1z M565.1,60.1l13.8-13.8c0.4-0.4,1-0.4,1.5,0l0.9,0.9c0.4,0.4,0.4,1,0,1.5
		l-13.9,13.7c-0.4,0.4-1,0.4-1.5,0l-0.9-0.9C564.7,61.1,564.7,60.5,565.1,60.1z"/>
</g>
<g>
	<g>
		<path class="st0" d="M249.1,309.4c-24.8,0-44.9,20.1-44.9,44.9s20.1,44.9,44.9,44.9s44.9-20.1,44.9-44.9S273.9,309.4,249.1,309.4z
			 M249.1,386.1c-17.5,0-31.8-14.2-31.8-31.8s14.2-31.8,31.8-31.8s31.8,14.2,31.8,31.8C280.8,371.9,266.6,386.1,249.1,386.1z"/>
	</g>
</g>
<g>
	<g>
		<path class="st0" d="M249.1,328.6c-14.2,0-25.8,11.6-25.8,25.8c0,14.2,11.6,25.8,25.8,25.8c14.2,0,25.8-11.6,25.8-25.8
			C274.8,340.2,263.3,328.6,249.1,328.6z M241.3,365.8c-2,0-3.6-1.6-3.6-3.6s1.6-3.6,3.6-3.6s3.6,1.6,3.6,3.6
			C244.9,364.1,243.3,365.8,241.3,365.8z M241.3,350.2c-2,0-3.6-1.6-3.6-3.6s1.6-3.6,3.6-3.6s3.6,1.6,3.6,3.6
			C244.9,348.6,243.3,350.2,241.3,350.2z M256.9,365.8c-2,0-3.6-1.6-3.6-3.6s1.6-3.6,3.6-3.6c2,0,3.6,1.6,3.6,3.6
			C260.5,364.1,258.8,365.8,256.9,365.8z M256.9,350.2c-2,0-3.6-1.6-3.6-3.6s1.6-3.6,3.6-3.6c2,0,3.6,1.6,3.6,3.6
			S258.8,350.2,256.9,350.2z"/>
	</g>
</g>
<g>
	<g>
		<path class="st0" d="M781.8,309.5c-24.8,0-44.9,20.1-44.9,44.9s20.1,44.9,44.9,44.9s44.9-20.1,44.9-44.9S806.6,309.5,781.8,309.5z
			 M781.8,386.2c-17.5,0-31.8-14.2-31.8-31.8s14.2-31.8,31.8-31.8c17.6,0,31.8,14.2,31.8,31.8C813.5,372,799.3,386.2,781.8,386.2z"
			/>
	</g>
</g>
<g>
	<g>
		<path class="st0" d="M781.8,328.7c-14.2,0-25.8,11.6-25.8,25.8c0,14.2,11.6,25.8,25.8,25.8c14.2,0,25.8-11.6,25.8-25.8
			C807.5,340.3,796,328.7,781.8,328.7z M774,365.9c-2,0-3.6-1.6-3.6-3.6s1.6-3.6,3.6-3.6s3.6,1.6,3.6,3.6
			C777.6,364.2,776,365.9,774,365.9z M774,350.3c-2,0-3.6-1.6-3.6-3.6s1.6-3.6,3.6-3.6s3.6,1.6,3.6,3.6
			C777.6,348.7,776,350.3,774,350.3z M789.6,365.9c-2,0-3.6-1.6-3.6-3.6s1.6-3.6,3.6-3.6s3.6,1.6,3.6,3.6
			C793.2,364.2,791.5,365.9,789.6,365.9z M789.6,350.3c-2,0-3.6-1.6-3.6-3.6s1.6-3.6,3.6-3.6s3.6,1.6,3.6,3.6
			S791.5,350.3,789.6,350.3z"/>
	</g>
</g>
</svg>
