<?xml version="1.0" encoding="utf-8"?>
<!-- Generator: Adobe Illustrator 22.1.0, SVG Export Plug-In . SVG Version: 6.00 Build 0)  -->
<svg version="1.1" id="Layer_1" xmlns="http://www.w3.org/2000/svg" xmlns:xlink="http://www.w3.org/1999/xlink" x="0px" y="0px"
	 viewBox="0 0 1026 659" style="enable-background:new 0 0 1026 659;" xml:space="preserve">
<style type="text/css">
	.st0{fill:#D27497;}
	.st1{display:none;fill:#D27497;}
	.st2{fill:#FFFFFF;}
	.st3{fill:#645EA3;}
	.st4{font-family:'RobotoSlab-Bold';}
	.st5{font-size:96px;}
</style>
<g>
	<g>
		<g>
			<path class="st0" d="M504.8,467.1l-20.6-5.5c5.7,1.5,11.5-1.9,13.1-7.5c1.5-5.7-1.9-11.5-7.5-13.1L475,437
				c-3.3-16.2-1.9-57.8,3.1-76.5c1.9-7.2,7.7-14.9,14.3-23.8c9.8-13.2,22-29.5,28.3-53.1c10.9-40.8-12.1-74.5-42.8-87.7l8.5-31.9
				c1.5-5.7-1.9-11.5-7.5-13.1c-5.7-1.5-11.5,1.9-13.1,7.5l-8.4,31.3c-19.9-4-54.4-8.9-90.8-14.2c-45.4-6.5-92.4-13.2-110.4-18.1
				c-31-8.3-45.6-35.8-43.2-44.7c4.6-17-5.6-34.6-22.6-39.2c-17-4.6-34.6,5.6-39.2,22.6l-38.6,144.3c-3.6,13.4,2,27.1,12.8,34.5
				l-14.3,53.4c-1.5,5.7,1.9,11.5,7.5,13.1c5.7,1.5,11.5-1.9,13.1-7.5l14.3-53.4c12.4-1,23.4-9.2,27.6-21.4
				c13-24.8,76.2-22.2,135.4,5.7c37.1,17.4,76,48,63.7,76.9c-5.3,12.4-20.8,41.7-51.6,54l-17-4.5c-5.7-1.5-11.5,1.9-13.1,7.5
				c-1.5,5.7,1.9,11.5,7.5,13.1L72,351.2c-17-4.6-34.6,5.6-39.2,22.6l-5.5,20.6c-4.6,17,5.6,34.6,22.6,39.2l432.8,115.8
				c17,4.6,34.6-5.6,39.2-22.6l5.5-20.6C532,489.2,521.9,471.6,504.8,467.1z M153.9,251.7c-1.5,5.7-7.4,9.1-13.1,7.5
				c-5.7-1.5-9.1-7.4-7.5-13.1l38.6-144.3c1.5-5.7,7.4-9.1,13.1-7.5s9.1,7.4,7.5,13.1L153.9,251.7z M392.4,350.2
				c15.3-35.8-13.2-75.8-74.2-104.6c-46.7-22-101.3-31.4-135.5-19L204,147c10.4,13.7,26.6,25.8,46.9,31.2
				c19.2,5.1,66.8,12,112.9,18.6c41.3,5.9,84,12,98.7,16c25,6.7,46.7,31.8,37.7,65.3c-5.2,19.6-15.6,33.5-24.8,45.8
				c-7.6,10.2-14.8,19.9-17.8,31.1c-4.4,16.5-7,52-4.8,76L351,403.8C373.6,387.5,386.3,364.6,392.4,350.2z M501.3,521.3
				c-1.5,5.7-7.4,9.1-13.1,7.5L55.5,413.1c-5.7-1.5-9.1-7.4-7.5-13.1l5.5-20.6c1.5-5.7,7.4-9.1,13.1-7.5l432.8,115.8
				c5.7,1.5,9.1,7.4,7.5,13.1L501.3,521.3z"/>
			<path class="st1" d="M517.3,337.9c5.7,1.5,11.5-1.9,13.1-7.5l27.6-103c1.5-5.7-1.9-11.5-7.5-13.1c-5.7-1.5-11.5,1.9-13.1,7.5
				l-16.5,61.8l-11,41.2C508.2,330.5,511.6,336.4,517.3,337.9z"/>
		</g>
	</g>
</g>
<g>
	<g>
		<g>
			<path class="st0" d="M516.3,466.6l20.9-4.9c-5.8,1.3-11.5-2.2-12.9-8c-1.3-5.7,2.3-11.5,8.1-12.8l15-3.5
				c3.9-16.1,3.9-57.7-0.4-76.5c-1.7-7.3-7.2-15.2-13.6-24.3c-9.4-13.5-21.1-30.2-26.6-54c-9.5-41.1,14.8-74.1,46.2-86.3l-7.5-32.1
				c-1.3-5.7,2.3-11.5,8.1-12.8c5.8-1.3,11.5,2.2,12.9,8l7.3,31.6c20.2-3.4,55-7.2,91.9-11.3c45.9-5.1,93.4-10.3,111.7-14.5
				c31.5-7.3,47.2-34.3,45.1-43.3c-4-17.2,6.9-34.4,24.2-38.5c17.3-4,34.6,6.7,38.6,23.9l33.7,145.5c3.1,13.5-3,27-14.1,34.1
				l12.5,53.9c1.3,5.7-2.3,11.5-8.1,12.8c-5.8,1.3-11.5-2.2-12.9-8l-12.5-53.9c-12.4-1.4-23.2-9.9-27-22.3
				c-12.2-25.2-75.8-24.7-136.4,1.4c-37.9,16.2-78.2,45.6-66.8,74.8c4.9,12.6,19.5,42.4,50,55.7l17.2-4c5.8-1.3,11.5,2.2,12.9,8
				c1.3,5.7-2.3,11.5-8.1,12.8l230.3-53.4c17.3-4,34.6,6.7,38.6,23.9l4.8,20.8c4,17.2-6.9,34.4-24.2,38.5l-439.6,102
				c-17.3,4-34.6-6.7-38.6-23.9l-4.8-20.8C488.2,487.9,499,470.6,516.3,466.6z M877.1,262.5c1.3,5.7,7.1,9.3,12.9,8
				c5.8-1.3,9.4-7.1,8.1-12.8l-33.7-145.5c-1.3-5.7-7.1-9.3-12.9-8c-5.8,1.3-9.4,7.1-8.1,12.8L877.1,262.5z M633.6,353.4
				c-14.1-36.3,16-75.4,78.4-102.2c47.8-20.5,103.1-28.2,137-14.6l-18.6-80.3c-10.9,13.3-27.7,25-48.3,29.7
				c-19.5,4.5-67.7,9.8-114.2,15c-41.8,4.6-84.9,9.3-99.9,12.8c-25.4,5.9-48.1,30.3-40.3,64.1c4.6,19.7,14.6,34,23.4,46.6
				c7.3,10.5,14.2,20.4,16.9,31.7c3.9,16.7,5.2,52.2,2.1,76.2l103.3-24C651.1,391.2,639.2,367.9,633.6,353.4z M517.9,521
				c1.3,5.7,7.1,9.3,12.9,8l439.6-102c5.8-1.3,9.4-7.1,8.1-12.8l-4.8-20.8c-1.3-5.7-7.1-9.3-12.9-8l-439.6,102
				c-5.8,1.3-9.4,7.1-8.1,12.8L517.9,521z"/>
			<path class="st1" d="M508.3,337.1c-5.8,1.3-11.5-2.2-12.9-8l-24.1-103.9c-1.3-5.7,2.3-11.5,8.1-12.8s11.5,2.2,12.9,8l14.5,62.3
				l9.6,41.6C517.7,330,514.1,335.7,508.3,337.1z"/>
		</g>
	</g>
</g>
<g>
	<path class="st0" d="M457.4,50.5c-10.7,0-19.3-8.6-19.3-19.3s8.6-19.3,19.3-19.3c10.7,0,19.3,8.6,19.3,19.3c0,5.1-2,10-5.6,13.6
		C467.4,48.4,462.5,50.5,457.4,50.5z"/>
	<path class="st0" d="M481.5,115.8l26.6-28.2l3.8,3.6l-41.5,39.2L481.5,115.8z"/>
	<path class="st0" d="M513.7,81.7l41.1-43.6c0.1-0.1,0.1-0.2,0.1-0.4c-0.8-2.6-0.1-5.4,1.8-7.3l15-15.2c2.8-2.8,7.4-2.8,10.2,0
		l2.2,2.2c2.8,2.8,2.8,7.4,0,10.2L569,42.7c-1.4,1.4-3.2,2.1-5.2,2.1c-0.8,0-1.5-0.1-2.3-0.4h0.1c-0.1,0-0.2,0-0.3,0.1l-43.8,41.3
		L513.7,81.7z M576.9,18.4c-0.9,0-1.7,0.3-2.3,1l-13.8,13.8c-1.3,1.3-1.3,3.4,0,4.7l0,0l0.9,0.9c1.3,1.3,3.4,1.3,4.7,0L580.2,25
		c1.3-1.3,1.3-3.4,0-4.7l-0.9-0.9C578.5,18.7,577.7,18.4,576.9,18.4L576.9,18.4z"/>
</g>
<path class="st2" d="M467.5,48.6l1.5-1c1.9-1.3,3.5-2.9,4.8-4.8l1-1.5l75.8,81l-2.1,2.1L467.5,48.6z"/>
<g>
	<path class="st0" d="M589.2,160.4l-69.1-73.9l42-39.6c3.1,0.6,6.3-0.3,8.5-2.6l15.1-15.1c3.7-3.7,3.7-9.7,0-13.4l-2.2-2.2
		c-3.7-3.7-9.7-3.7-13.4,0L555,28.7c-2.2,2.2-3.2,5.4-2.6,8.5l-39.3,41.7l-36.2-38.7c5-10.8,0.3-23.6-10.5-28.6s-23.6-0.3-28.6,10.5
		s-0.3,23.6,10.5,28.6c5.7,2.7,12.4,2.7,18.1,0l39.1,36.5l-67.9,72c-0.7,0.8-0.6,1.9,0.1,2.6c0.7,0.6,1.8,0.6,2.5,0l72.3-68.1
		l74.2,69.3c0.8,0.7,1.9,0.6,2.6-0.1C589.9,162.2,589.9,161.1,589.2,160.4L589.2,160.4z M555.8,39c0.5-0.5,0.6-1.2,0.4-1.8
		c-0.6-2.1-0.1-4.3,1.5-5.8l15-15.1c2.3-2.2,5.9-2.2,8.2,0l2.2,2.2c2.2,2.3,2.2,5.9,0,8.2L568,41.8c-1.5,1.5-3.8,2.1-5.8,1.5
		c-0.6-0.2-1.3,0-1.8,0.4l-42.8,40.1l-1.9-2.1L555.8,39z M444.8,43.8c-7-7-7-18.2,0-25.2s18.2-7,25.2,0s7,18.2,0,25.2
		c-3.3,3.3-7.9,5.2-12.6,5.2S448.1,47.1,444.8,43.8z M482.6,116.9l25.6-27.2l1.6,1.5L482.6,116.9z M513.9,90L513.9,90
		c0-0.1-0.1-0.2-0.1-0.2l-44-41c2-1.4,3.8-3.2,5.2-5.2l41.2,44.1l33.3,35.6L513.9,90z"/>
	<path class="st0" d="M560.6,39.7c1.9,1.9,4.9,1.9,6.7,0l13.8-13.8c1.9-1.9,1.9-4.9,0-6.7l-0.9-0.9c-1.9-1.9-4.9-1.9-6.7,0
		l-13.8,13.8c-1.9,1.9-1.9,4.9,0,6.7L560.6,39.7z M562.3,34.7l13.8-13.8c0.4-0.4,1-0.4,1.5,0l0.9,0.9c0.4,0.4,0.4,1,0,1.5L564.6,37
		c-0.4,0.4-1,0.4-1.5,0l-0.9-0.9C561.9,35.7,561.9,35.1,562.3,34.7z"/>
</g>
<g>
	<g>
		<path class="st0" d="M246.3,284c-24.8,0-44.9,20.1-44.9,44.9s20.1,44.9,44.9,44.9s44.9-20.1,44.9-44.9S271.1,284,246.3,284z
			 M246.3,360.7c-17.5,0-31.8-14.2-31.8-31.8s14.2-31.8,31.8-31.8s31.8,14.2,31.8,31.8C278,346.5,263.8,360.7,246.3,360.7z"/>
	</g>
</g>
<g>
	<g>
		<path class="st0" d="M246.3,303.2c-14.2,0-25.8,11.6-25.8,25.8c0,14.2,11.6,25.8,25.8,25.8s25.8-11.6,25.8-25.8
			C272,314.8,260.5,303.2,246.3,303.2z M238.5,340.4c-2,0-3.6-1.6-3.6-3.6s1.6-3.6,3.6-3.6s3.6,1.6,3.6,3.6
			C242.1,338.7,240.5,340.4,238.5,340.4z M238.5,324.8c-2,0-3.6-1.6-3.6-3.6s1.6-3.6,3.6-3.6s3.6,1.6,3.6,3.6
			C242.1,323.2,240.5,324.8,238.5,324.8z M254.1,340.4c-2,0-3.6-1.6-3.6-3.6s1.6-3.6,3.6-3.6c2,0,3.6,1.6,3.6,3.6
			C257.7,338.7,256,340.4,254.1,340.4z M254.1,324.8c-2,0-3.6-1.6-3.6-3.6s1.6-3.6,3.6-3.6c2,0,3.6,1.6,3.6,3.6
			S256,324.8,254.1,324.8z"/>
	</g>
</g>
<g>
	<g>
		<path class="st0" d="M779.1,284.1c-24.8,0-44.9,20.1-44.9,44.9s20.1,44.9,44.9,44.9S824,353.8,824,329S803.9,284.1,779.1,284.1z
			 M779.1,360.8c-17.5,0-31.8-14.2-31.8-31.8s14.2-31.8,31.8-31.8c17.6,0,31.8,14.2,31.8,31.8C810.8,346.6,796.6,360.8,779.1,360.8z
			"/>
	</g>
</g>
<g>
	<g>
		<path class="st0" d="M779.1,303.3c-14.2,0-25.8,11.6-25.8,25.8c0,14.2,11.6,25.8,25.8,25.8s25.8-11.6,25.8-25.8
			C804.8,314.9,793.3,303.3,779.1,303.3z M771.3,340.5c-2,0-3.6-1.6-3.6-3.6s1.6-3.6,3.6-3.6s3.6,1.6,3.6,3.6
			C774.9,338.8,773.3,340.5,771.3,340.5z M771.3,324.9c-2,0-3.6-1.6-3.6-3.6s1.6-3.6,3.6-3.6s3.6,1.6,3.6,3.6
			S773.3,324.9,771.3,324.9z M786.9,340.5c-2,0-3.6-1.6-3.6-3.6s1.6-3.6,3.6-3.6s3.6,1.6,3.6,3.6
			C790.5,338.8,788.8,340.5,786.9,340.5z M786.9,324.9c-2,0-3.6-1.6-3.6-3.6s1.6-3.6,3.6-3.6s3.6,1.6,3.6,3.6
			S788.8,324.9,786.9,324.9z"/>
	</g>
</g>
<text transform="matrix(1 0 0 1 4.3089 648)" class="st3 st4 st5">MON TUTO COUTURE</text>
</svg>
