<?xml version="1.0" encoding="utf-8"?>
<!-- Generator: Adobe Illustrator 22.1.0, SVG Export Plug-In . SVG Version: 6.00 Build 0)  -->
<svg version="1.1" id="Calque_1" xmlns="http://www.w3.org/2000/svg" xmlns:xlink="http://www.w3.org/1999/xlink" x="0px" y="0px"
	 viewBox="0 0 933 741" style="enable-background:new 0 0 933 741;" xml:space="preserve">
<style type="text/css">
	.st0{fill:#D27497;}
	.st1{display:none;}
	.st2{display:inline;fill:#D27497;}
	.st3{fill:#FFFFFF;}
</style>
<g id="Capa_1_-_copie">
	<path class="st0" d="M479.4,274.5l12.8,45.4c1.1,4-4,1.1,0,0s15.6-0.1,14.4-4.1l-12.8-45.4c-1.1-4-3,5-7,6.1
		C482.8,277.7,478.3,270.5,479.4,274.5z"/>
	<path class="st0" d="M473.1,281.2l-11.3-51.9c-1.1-4.1,1.2-8.3,5.3-9.4l14.9-4.2c4.1-1.1,8.3,1.2,9.4,5.3l11.3,51.9
		c1.1,4.1-1.2,8.3-5.3,9.4l-14.9,4.2C478.5,287.6,474.2,285.2,473.1,281.2z"/>
	<g>
		<path class="st0" d="M781.8,214.3l7.2,25.3l20.4-5.7l-7.2-25.3c-1.6-5.6-7.4-8.9-13.1-7.3l0,0
			C783.5,202.8,780.2,208.6,781.8,214.3z"/>
	</g>
	<g>
		<path class="st0" d="M486.9,303.5c-35.3,6.1-57.6,41.4-47.9,75.9l57.2,202.8l124-35L580,464.3c-12.8-26.3-0.6-58,26.5-68.8
			l202.1-76l-20.4-72.1L486.9,303.5z"/>
	</g>
	<path class="st0" d="M441.3,385.4l57.2,202.8l124-35l-8.1-16.8l-50.1,14.1c-14.3,4-29.1-4.3-33.1-18.6L481.3,355
		c-4.5-15.8-2.2-31.7,4.9-45C452.6,317.6,431.8,351.9,441.3,385.4z"/>
	<path class="st0" d="M461.2,615.2l-1.8-6.5c-2.4-8.4,2.5-17.2,10.9-19.5l435.2-122.8c8.4-2.4,17.2,2.5,19.5,10.9l1.8,6.5
		c2.4,8.4-2.5,17.2-10.9,19.5L480.7,626.2C472.3,628.5,463.6,623.6,461.2,615.2z"/>
	<path class="st0" d="M459.4,608.7l1.8,6.5c2.4,8.4,11.1,13.3,19.5,10.9l435.2-122.8c8.4-2.4,13.3-11.1,10.9-19.5l-0.5-1.6
		L515.7,598.1c-5.7,1.6-11.6-1.7-13.2-7.4l-2.8-9.8l-29.4,8.3C461.9,591.6,457,600.3,459.4,608.7z"/>
	<path class="st0" d="M830.3,371.3l17.5,61.9c1.1,4,5.3,6.3,9.3,5.2c4-1.1,6.3-5.3,5.2-9.3l-17.5-61.9c-1.1-4-5.3-6.3-9.3-5.2
		C831.5,363.2,829.2,367.3,830.3,371.3z"/>
	<path class="st0" d="M824.6,377.4l-10.1-35.9l28.2-7.9l10.1,35.9c2.2,7.8-2.3,15.9-10.1,18l0,0
		C834.9,389.7,826.8,385.2,824.6,377.4z"/>
	<path class="st0" d="M850.8,338.5l-26-114.5c-1-4.5-5.6-7.2-10.1-6l-36.8,10.4c-4.4,1.3-6.9,6-5.4,10.3l37.7,111.2
		c1.4,4.1,5.7,6.3,9.8,5.2l25.1-7.1C849.2,346.9,851.7,342.7,850.8,338.5z"/>
	<g>
		<circle class="st0" cx="418.6" cy="459.3" r="20.7"/>
		<circle class="st0" cx="390.4" cy="527.7" r="20.7"/>
	</g>
	<path class="st0" d="M772.5,238.8L810.2,350c1.4,4.1,5.7,6.3,9.8,5.2l12.5-3.5l-36.2-128.3l-18.4,5.2
		C773.5,229.7,771,234.4,772.5,238.8z"/>
	<g class="st1">
		<path class="st2" d="M800.7,595.2c10.5-4.4,15.5-16.5,11.2-27l-38.2,15.9C778,594.6,790.1,599.6,800.7,595.2z"/>
		<path class="st2" d="M772.4,663.7c10.5-4.4,15.5-16.5,11.2-27l-38.2,15.9C749.8,663,761.9,668,772.4,663.7z"/>
	</g>
</g>
<g id="Capa_1">
	<path class="st0" d="M448.4,276.5c-4-1.1-5.9-10.1-7-6.1l-12.8,45.4c-1.1,4,10.4,2.9,14.4,4.1c4,1.1-1.1,4,0,0l12.8-45.4
		C457,270.5,452.4,277.7,448.4,276.5z"/>
	<path class="st0" d="M452.7,286.5l-14.9-4.2c-4.1-1.1-6.4-5.4-5.3-9.4l16.9-51.9c1.1-4.1,5.4-6.4,9.4-5.3l14.9,4.2
		c4.1,1.1,6.4,5.4,5.3,9.4l-16.9,51.9C461,285.2,456.8,287.6,452.7,286.5z"/>
	<g>
		<path class="st0" d="M146.1,201.2L146.1,201.2c-5.6-1.6-11.5,1.7-13.1,7.3l-7.2,25.3l20.4,5.7l7.2-25.3
			C155,208.6,151.7,202.8,146.1,201.2z"/>
	</g>
	<g>
		<path class="st0" d="M146.8,247.3l-20.4,72.1l202.1,76c27.2,10.9,39.4,42.5,26.5,68.8l-40,83l124,35l57.2-202.8
			c9.7-34.5-12.6-69.8-47.9-75.9L146.8,247.3z"/>
	</g>
	<path class="st0" d="M449.1,310.1c7.1,13.2,9.4,29.2,4.9,45L404.1,532c-4,14.3-18.9,22.6-33.1,18.6l-50.1-14.1l-8.1,16.8l124,35
		L494,385.4C503.4,351.9,482.7,317.6,449.1,310.1z"/>
	<path class="st0" d="M454.5,626.2L19.3,503.3c-8.4-2.4-13.3-11.1-10.9-19.5l1.8-6.5c2.4-8.4,11.1-13.3,19.5-10.9l435.2,122.8
		c8.4,2.4,13.3,11.1,10.9,19.5l-1.8,6.5C471.6,623.6,462.9,628.5,454.5,626.2z"/>
	<path class="st0" d="M464.9,589.2l-29.4-8.3l-2.8,9.8c-1.6,5.7-7.5,9-13.2,7.4L8.8,482.2l-0.5,1.6c-2.4,8.4,2.5,17.2,10.9,19.5
		l435.2,122.8c8.4,2.4,17.2-2.5,19.5-10.9l1.8-6.5C478.2,600.3,473.3,591.6,464.9,589.2z"/>
	<path class="st0" d="M99.7,362.1c-4-1.1-8.1,1.2-9.3,5.2L73,429.1c-1.1,4,1.2,8.1,5.2,9.3c4,1.1,8.1-1.2,9.3-5.2l17.5-61.9
		C106,367.3,103.7,363.2,99.7,362.1z"/>
	<path class="st0" d="M92.5,387.5L92.5,387.5c-7.8-2.2-12.3-10.3-10.1-18l10.1-35.9l28.2,7.9l-10.1,35.9
		C108.4,385.2,100.3,389.7,92.5,387.5z"/>
	<path class="st0" d="M90.1,348l25.1,7.1c4.1,1.2,8.4-1.1,9.8-5.2l37.7-111.2c1.5-4.4-1-9.1-5.4-10.3L120.5,218
		c-4.4-1.3-9,1.5-10.1,6l-26,114.5C83.5,342.7,86,346.9,90.1,348z"/>
	<g>
		<circle class="st0" cx="527.4" cy="459.3" r="20.7"/>
		<circle class="st0" cx="555.7" cy="527.7" r="20.7"/>
	</g>
	<path class="st0" d="M157.3,228.4l-18.4-5.2l-36.2,128.3l12.5,3.5c4.1,1.2,8.4-1.1,9.8-5.2l37.7-111.2
		C164.2,234.4,161.7,229.7,157.3,228.4z"/>
	<g>
		<path class="st0" d="M546.5,467.3l-38.2-15.9c-4.4,10.5,0.6,22.6,11.2,27C530,482.8,542.1,477.8,546.5,467.3z"/>
		<path class="st0" d="M574.7,535.7l-38.2-15.9c-4.4,10.5,0.6,22.6,11.2,27C558.3,551.2,570.4,546.2,574.7,535.7z"/>
	</g>
</g>
<g>
	<g>
		<path class="st0" d="M208.1,390.7c-24.8,0-44.9,20.1-44.9,44.9s20.1,44.9,44.9,44.9s44.9-20.1,44.9-44.9S232.9,390.7,208.1,390.7z
			 M208.1,467.4c-17.5,0-31.8-14.2-31.8-31.8s14.2-31.8,31.8-31.8s31.8,14.2,31.8,31.8C239.8,453.2,225.6,467.4,208.1,467.4z"/>
	</g>
</g>
<g>
	<g>
		<path class="st0" d="M208.1,409.9c-14.2,0-25.8,11.6-25.8,25.8c0,14.2,11.6,25.8,25.8,25.8c14.2,0,25.8-11.6,25.8-25.8
			C233.8,421.5,222.3,409.9,208.1,409.9z M200.3,447.1c-2,0-3.6-1.6-3.6-3.6s1.6-3.6,3.6-3.6s3.6,1.6,3.6,3.6
			C203.9,445.4,202.3,447.1,200.3,447.1z M200.3,431.5c-2,0-3.6-1.6-3.6-3.6s1.6-3.6,3.6-3.6s3.6,1.6,3.6,3.6
			C203.9,429.9,202.3,431.5,200.3,431.5z M215.9,447.1c-2,0-3.6-1.6-3.6-3.6s1.6-3.6,3.6-3.6s3.6,1.6,3.6,3.6
			C219.5,445.4,217.8,447.1,215.9,447.1z M215.9,431.5c-2,0-3.6-1.6-3.6-3.6s1.6-3.6,3.6-3.6s3.6,1.6,3.6,3.6
			S217.8,431.5,215.9,431.5z"/>
	</g>
</g>
<g>
	<g>
		<path class="st0" d="M710.1,395.6c-24.8,0-44.9,20.1-44.9,44.9s20.1,44.9,44.9,44.9s44.9-20.1,44.9-44.9S734.9,395.6,710.1,395.6z
			 M710.1,472.3c-17.5,0-31.8-14.2-31.8-31.8s14.2-31.8,31.8-31.8s31.8,14.2,31.8,31.8C741.8,458.1,727.6,472.3,710.1,472.3z"/>
	</g>
</g>
<g>
	<g>
		<path class="st0" d="M710.1,414.8c-14.2,0-25.8,11.6-25.8,25.8c0,14.2,11.6,25.8,25.8,25.8s25.8-11.6,25.8-25.8
			C735.8,426.3,724.3,414.8,710.1,414.8z M702.3,451.9c-2,0-3.6-1.6-3.6-3.6s1.6-3.6,3.6-3.6s3.6,1.6,3.6,3.6
			C705.9,450.3,704.3,451.9,702.3,451.9z M702.3,436.4c-2,0-3.6-1.6-3.6-3.6s1.6-3.6,3.6-3.6s3.6,1.6,3.6,3.6
			C705.9,434.7,704.3,436.4,702.3,436.4z M717.9,451.9c-2,0-3.6-1.6-3.6-3.6s1.6-3.6,3.6-3.6s3.6,1.6,3.6,3.6
			S719.8,451.9,717.9,451.9z M717.9,436.4c-2,0-3.6-1.6-3.6-3.6s1.6-3.6,3.6-3.6s3.6,1.6,3.6,3.6
			C721.5,434.7,719.8,436.4,717.9,436.4z"/>
	</g>
</g>
<g>
	<path class="st0" d="M415.8,134.3c-10.7,0-19.3-8.6-19.3-19.3s8.6-19.3,19.3-19.3c10.7,0,19.3,8.6,19.3,19.3c0,5.1-2,10-5.6,13.6
		C425.8,132.2,420.9,134.3,415.8,134.3z"/>
	<path class="st0" d="M439.9,199.6l26.6-28.2l3.8,3.6l-41.5,39.2L439.9,199.6z"/>
	<path class="st0" d="M472.1,165.5l41.1-43.6c0.1-0.1,0.1-0.2,0.1-0.4c-0.8-2.6-0.1-5.4,1.8-7.3l15-15.2c2.8-2.8,7.4-2.8,10.2,0
		l2.2,2.2c2.8,2.8,2.8,7.4,0,10.2l-15.1,15.1c-1.4,1.4-3.2,2.1-5.2,2.1c-0.8,0-1.5-0.1-2.3-0.4h0.1c-0.1,0-0.2,0-0.3,0.1l-43.8,41.3
		L472.1,165.5z M535.3,102.2c-0.9,0-1.7,0.3-2.3,1L519.2,117c-1.3,1.3-1.3,3.4,0,4.7l0,0l0.9,0.9c1.3,1.3,3.4,1.3,4.7,0l13.8-13.8
		c1.3-1.3,1.3-3.4,0-4.7l-0.9-0.9C536.9,102.5,536.1,102.2,535.3,102.2L535.3,102.2z"/>
</g>
<path class="st3" d="M425.9,132.4l1.5-1c1.9-1.3,3.5-2.9,4.8-4.8l1-1.5l75.8,81l-2.1,2.1L425.9,132.4z"/>
<g>
	<path class="st0" d="M547.6,244.2l-69.1-73.9l42-39.6c3.1,0.6,6.3-0.3,8.5-2.6l15.1-15.1c3.7-3.7,3.7-9.7,0-13.4l-2.2-2.2
		c-3.7-3.7-9.7-3.7-13.4,0l-15.1,15.1c-2.2,2.2-3.2,5.4-2.6,8.5l-39.3,41.7L435.3,124c5-10.8,0.3-23.6-10.5-28.6
		s-23.6-0.3-28.6,10.5s-0.3,23.6,10.5,28.6c5.7,2.7,12.4,2.7,18.1,0l39.1,36.5L396,243c-0.7,0.8-0.6,1.9,0.1,2.6
		c0.7,0.6,1.8,0.6,2.5,0l72.3-68.1l74.2,69.3c0.8,0.7,1.9,0.6,2.6-0.1C548.3,246,548.3,244.9,547.6,244.2L547.6,244.2z M514.2,122.8
		c0.5-0.5,0.6-1.2,0.4-1.8c-0.6-2.1-0.1-4.3,1.5-5.8l15-15.1c2.3-2.2,5.9-2.2,8.2,0l2.2,2.2c2.2,2.3,2.2,5.9,0,8.2l-15.1,15.1
		c-1.5,1.5-3.8,2.1-5.8,1.5c-0.6-0.2-1.3,0-1.8,0.4L476,167.6l-1.9-2.1L514.2,122.8z M403.2,127.6c-7-7-7-18.2,0-25.2s18.2-7,25.2,0
		s7,18.2,0,25.2c-3.3,3.3-7.9,5.2-12.6,5.2S406.5,130.9,403.2,127.6z M441,200.7l25.6-27.2l1.6,1.5L441,200.7z M472.3,173.8
		L472.3,173.8c0-0.1-0.1-0.2-0.1-0.2l-44-41c2-1.4,3.8-3.2,5.2-5.2l41.2,44.1l33.3,35.6L472.3,173.8z"/>
	<path class="st0" d="M519,123.5c1.9,1.9,4.9,1.9,6.7,0l13.8-13.8c1.9-1.9,1.9-4.9,0-6.7l-0.9-0.9c-1.9-1.9-4.9-1.9-6.7,0
		l-13.8,13.8c-1.9,1.9-1.9,4.9,0,6.7L519,123.5z M520.7,118.5l13.8-13.8c0.4-0.4,1-0.4,1.5,0l0.9,0.9c0.4,0.4,0.4,1,0,1.5L523,120.8
		c-0.4,0.4-1,0.4-1.5,0l-0.9-0.9C520.3,119.5,520.3,118.9,520.7,118.5z"/>
</g>
<g style="display:none;enable-background:new    ;">
</g>
</svg>
