<?xml version="1.0" encoding="utf-8"?>
<!-- Generator: Adobe Illustrator 22.1.0, SVG Export Plug-In . SVG Version: 6.00 Build 0)  -->
<svg version="1.1" id="Calque_1" xmlns="http://www.w3.org/2000/svg" xmlns:xlink="http://www.w3.org/1999/xlink" x="0px" y="0px"
	 viewBox="0 0 1057 670" style="enable-background:new 0 0 1057 670;" xml:space="preserve">
<style type="text/css">
	.st0{fill:#D27497;}
	.st1{display:none;}
	.st2{display:inline;fill:#D27497;}
	.st3{fill:#FFFFFF;}
	.st4{fill:#645EA3;}
	.st5{font-family:'RobotoSlab-Bold';}
	.st6{font-size:96px;}
</style>
<g id="Capa_1_-_copie">
	<path class="st0" d="M522.4,193.5l12.8,45.4c1.1,4-4,1.1,0,0s15.6-0.1,14.4-4.1l-12.8-45.4c-1.1-4-3,5-7,6.1
		C525.8,196.7,521.3,189.5,522.4,193.5z"/>
	<path class="st0" d="M516.1,200.2l-11.3-51.9c-1.1-4.1,1.2-8.3,5.3-9.4l14.9-4.2c4.1-1.1,8.3,1.2,9.4,5.3l11.3,51.9
		c1.1,4.1-1.2,8.3-5.3,9.4l-14.9,4.2C521.5,206.6,517.2,204.2,516.1,200.2z"/>
	<g>
		<path class="st0" d="M824.8,133.3l7.2,25.3l20.4-5.7l-7.2-25.3c-1.6-5.6-7.4-8.9-13.1-7.3l0,0
			C826.5,121.8,823.2,127.6,824.8,133.3z"/>
	</g>
	<g>
		<path class="st0" d="M529.9,222.5c-35.3,6.1-57.6,41.4-47.9,75.9l57.2,202.8l124-35L623,383.3c-12.8-26.3-0.6-58,26.5-68.8
			l202.1-76l-20.4-72.1L529.9,222.5z"/>
	</g>
	<path class="st0" d="M484.3,304.4l57.2,202.8l124-35l-8.1-16.8l-50.1,14.1c-14.3,4-29.1-4.3-33.1-18.6L524.3,274
		c-4.5-15.8-2.2-31.7,4.9-45C495.6,236.6,474.8,270.9,484.3,304.4z"/>
	<path class="st0" d="M504.2,534.2l-1.8-6.5c-2.4-8.4,2.5-17.2,10.9-19.5l435.2-122.8c8.4-2.4,17.2,2.5,19.5,10.9l1.8,6.5
		c2.4,8.4-2.5,17.2-10.9,19.5L523.7,545.2C515.3,547.5,506.6,542.6,504.2,534.2z"/>
	<path class="st0" d="M502.4,527.7l1.8,6.5c2.4,8.4,11.1,13.3,19.5,10.9l435.2-122.8c8.4-2.4,13.3-11.1,10.9-19.5l-0.5-1.6
		L558.7,517.1c-5.7,1.6-11.6-1.7-13.2-7.4l-2.8-9.8l-29.4,8.3C504.9,510.6,500,519.3,502.4,527.7z"/>
	<path class="st0" d="M873.3,290.3l17.5,61.9c1.1,4,5.3,6.3,9.3,5.2c4-1.1,6.3-5.3,5.2-9.3l-17.5-61.9c-1.1-4-5.3-6.3-9.3-5.2
		C874.5,282.2,872.2,286.3,873.3,290.3z"/>
	<path class="st0" d="M867.6,296.4l-10.1-35.9l28.2-7.9l10.1,35.9c2.2,7.8-2.3,15.9-10.1,18l0,0
		C877.9,308.7,869.8,304.2,867.6,296.4z"/>
	<path class="st0" d="M893.8,257.5l-26-114.5c-1-4.5-5.6-7.2-10.1-6l-36.8,10.4c-4.4,1.3-6.9,6-5.4,10.3l37.7,111.2
		c1.4,4.1,5.7,6.3,9.8,5.2l25.1-7.1C892.2,265.9,894.7,261.7,893.8,257.5z"/>
	<g>
		<circle class="st0" cx="461.6" cy="378.3" r="20.7"/>
		<circle class="st0" cx="433.4" cy="446.7" r="20.7"/>
	</g>
	<path class="st0" d="M815.5,157.8L853.2,269c1.4,4.1,5.7,6.3,9.8,5.2l12.5-3.5l-36.2-128.3l-18.4,5.2
		C816.5,148.7,814,153.4,815.5,157.8z"/>
	<g class="st1">
		<path class="st2" d="M843.7,514.2c10.5-4.4,15.5-16.5,11.2-27l-38.2,15.9C821,513.6,833.1,518.6,843.7,514.2z"/>
		<path class="st2" d="M815.4,582.7c10.5-4.4,15.5-16.5,11.2-27l-38.2,15.9C792.8,582,804.9,587,815.4,582.7z"/>
	</g>
</g>
<g id="Capa_1">
	<path class="st0" d="M491.4,195.5c-4-1.1-5.9-10.1-7-6.1l-12.8,45.4c-1.1,4,10.4,2.9,14.4,4.1c4,1.1-1.1,4,0,0l12.8-45.4
		C500,189.5,495.4,196.7,491.4,195.5z"/>
	<path class="st0" d="M495.7,205.5l-14.9-4.2c-4.1-1.1-6.4-5.4-5.3-9.4l16.9-51.9c1.1-4.1,5.4-6.4,9.4-5.3l14.9,4.2
		c4.1,1.1,6.4,5.4,5.3,9.4l-16.9,51.9C504,204.2,499.8,206.6,495.7,205.5z"/>
	<g>
		<path class="st0" d="M189.1,120.2L189.1,120.2c-5.6-1.6-11.5,1.7-13.1,7.3l-7.2,25.3l20.4,5.7l7.2-25.3
			C198,127.6,194.7,121.8,189.1,120.2z"/>
	</g>
	<g>
		<path class="st0" d="M189.8,166.3l-20.4,72.1l202.1,76c27.2,10.9,39.4,42.5,26.5,68.8l-40,83l124,35l57.2-202.8
			c9.7-34.5-12.6-69.8-47.9-75.9L189.8,166.3z"/>
	</g>
	<path class="st0" d="M492.1,229.1c7.1,13.2,9.4,29.2,4.9,45L447.1,451c-4,14.3-18.9,22.6-33.1,18.6l-50.1-14.1l-8.1,16.8l124,35
		L537,304.4C546.4,270.9,525.7,236.6,492.1,229.1z"/>
	<path class="st0" d="M497.5,545.2L62.3,422.3c-8.4-2.4-13.3-11.1-10.9-19.5l1.8-6.5c2.4-8.4,11.1-13.3,19.5-10.9l435.2,122.8
		c8.4,2.4,13.3,11.1,10.9,19.5l-1.8,6.5C514.6,542.6,505.9,547.5,497.5,545.2z"/>
	<path class="st0" d="M507.9,508.2l-29.4-8.3l-2.8,9.8c-1.6,5.7-7.5,9-13.2,7.4L51.8,401.2l-0.5,1.6c-2.4,8.4,2.5,17.2,10.9,19.5
		l435.2,122.8c8.4,2.4,17.2-2.5,19.5-10.9l1.8-6.5C521.2,519.3,516.3,510.6,507.9,508.2z"/>
	<path class="st0" d="M142.7,281.1c-4-1.1-8.1,1.2-9.3,5.2L116,348.1c-1.1,4,1.2,8.1,5.2,9.3c4,1.1,8.1-1.2,9.3-5.2l17.5-61.9
		C149,286.3,146.7,282.2,142.7,281.1z"/>
	<path class="st0" d="M135.5,306.5L135.5,306.5c-7.8-2.2-12.3-10.3-10.1-18l10.1-35.9l28.2,7.9l-10.1,35.9
		C151.4,304.2,143.3,308.7,135.5,306.5z"/>
	<path class="st0" d="M133.1,267l25.1,7.1c4.1,1.2,8.4-1.1,9.8-5.2l37.7-111.2c1.5-4.4-1-9.1-5.4-10.3L163.5,137
		c-4.4-1.3-9,1.5-10.1,6l-26,114.5C126.5,261.7,129,265.9,133.1,267z"/>
	<g>
		<circle class="st0" cx="570.4" cy="378.3" r="20.7"/>
		<circle class="st0" cx="598.7" cy="446.7" r="20.7"/>
	</g>
	<path class="st0" d="M200.3,147.4l-18.4-5.2l-36.2,128.3l12.5,3.5c4.1,1.2,8.4-1.1,9.8-5.2l37.7-111.2
		C207.2,153.4,204.7,148.7,200.3,147.4z"/>
	<g>
		<path class="st0" d="M589.5,386.3l-38.2-15.9c-4.4,10.5,0.6,22.6,11.2,27C573,401.8,585.1,396.8,589.5,386.3z"/>
		<path class="st0" d="M617.7,454.7l-38.2-15.9c-4.4,10.5,0.6,22.6,11.2,27C601.3,470.2,613.4,465.2,617.7,454.7z"/>
	</g>
</g>
<g>
	<g>
		<path class="st0" d="M251.1,309.7c-24.8,0-44.9,20.1-44.9,44.9s20.1,44.9,44.9,44.9s44.9-20.1,44.9-44.9S275.9,309.7,251.1,309.7z
			 M251.1,386.4c-17.5,0-31.8-14.2-31.8-31.8s14.2-31.8,31.8-31.8s31.8,14.2,31.8,31.8C282.8,372.2,268.6,386.4,251.1,386.4z"/>
	</g>
</g>
<g>
	<g>
		<path class="st0" d="M251.1,328.9c-14.2,0-25.8,11.6-25.8,25.8c0,14.2,11.6,25.8,25.8,25.8c14.2,0,25.8-11.6,25.8-25.8
			C276.8,340.5,265.3,328.9,251.1,328.9z M243.3,366.1c-2,0-3.6-1.6-3.6-3.6s1.6-3.6,3.6-3.6s3.6,1.6,3.6,3.6
			C246.9,364.4,245.3,366.1,243.3,366.1z M243.3,350.5c-2,0-3.6-1.6-3.6-3.6s1.6-3.6,3.6-3.6s3.6,1.6,3.6,3.6
			C246.9,348.9,245.3,350.5,243.3,350.5z M258.9,366.1c-2,0-3.6-1.6-3.6-3.6s1.6-3.6,3.6-3.6s3.6,1.6,3.6,3.6
			C262.5,364.4,260.8,366.1,258.9,366.1z M258.9,350.5c-2,0-3.6-1.6-3.6-3.6s1.6-3.6,3.6-3.6s3.6,1.6,3.6,3.6
			S260.8,350.5,258.9,350.5z"/>
	</g>
</g>
<g>
	<g>
		<path class="st0" d="M753.1,314.6c-24.8,0-44.9,20.1-44.9,44.9s20.1,44.9,44.9,44.9s44.9-20.1,44.9-44.9S777.9,314.6,753.1,314.6z
			 M753.1,391.3c-17.5,0-31.8-14.2-31.8-31.8s14.2-31.8,31.8-31.8s31.8,14.2,31.8,31.8C784.8,377.1,770.6,391.3,753.1,391.3z"/>
	</g>
</g>
<g>
	<g>
		<path class="st0" d="M753.1,333.8c-14.2,0-25.8,11.6-25.8,25.8c0,14.2,11.6,25.8,25.8,25.8s25.8-11.6,25.8-25.8
			C778.8,345.3,767.3,333.8,753.1,333.8z M745.3,370.9c-2,0-3.6-1.6-3.6-3.6s1.6-3.6,3.6-3.6s3.6,1.6,3.6,3.6
			C748.9,369.3,747.3,370.9,745.3,370.9z M745.3,355.4c-2,0-3.6-1.6-3.6-3.6s1.6-3.6,3.6-3.6s3.6,1.6,3.6,3.6
			C748.9,353.7,747.3,355.4,745.3,355.4z M760.9,370.9c-2,0-3.6-1.6-3.6-3.6s1.6-3.6,3.6-3.6s3.6,1.6,3.6,3.6
			S762.8,370.9,760.9,370.9z M760.9,355.4c-2,0-3.6-1.6-3.6-3.6s1.6-3.6,3.6-3.6s3.6,1.6,3.6,3.6
			C764.5,353.7,762.8,355.4,760.9,355.4z"/>
	</g>
</g>
<g>
	<path class="st0" d="M458.8,53.3c-10.7,0-19.3-8.6-19.3-19.3s8.6-19.3,19.3-19.3c10.7,0,19.3,8.6,19.3,19.3c0,5.1-2,10-5.6,13.6
		C468.8,51.2,463.9,53.3,458.8,53.3z"/>
	<path class="st0" d="M482.9,118.6l26.6-28.2l3.8,3.6l-41.5,39.2L482.9,118.6z"/>
	<path class="st0" d="M515.1,84.5l41.1-43.6c0.1-0.1,0.1-0.2,0.1-0.4c-0.8-2.6-0.1-5.4,1.8-7.3l15-15.2c2.8-2.8,7.4-2.8,10.2,0
		l2.2,2.2c2.8,2.8,2.8,7.4,0,10.2l-15.1,15.1c-1.4,1.4-3.2,2.1-5.2,2.1c-0.8,0-1.5-0.1-2.3-0.4h0.1c-0.1,0-0.2,0-0.3,0.1l-43.8,41.3
		L515.1,84.5z M578.3,21.2c-0.9,0-1.7,0.3-2.3,1L562.2,36c-1.3,1.3-1.3,3.4,0,4.7l0,0l0.9,0.9c1.3,1.3,3.4,1.3,4.7,0l13.8-13.8
		c1.3-1.3,1.3-3.4,0-4.7l-0.9-0.9C579.9,21.5,579.1,21.2,578.3,21.2L578.3,21.2z"/>
</g>
<path class="st3" d="M468.9,51.4l1.5-1c1.9-1.3,3.5-2.9,4.8-4.8l1-1.5l75.8,81l-2.1,2.1L468.9,51.4z"/>
<g>
	<path class="st0" d="M590.6,163.2l-69.1-73.9l42-39.6c3.1,0.6,6.3-0.3,8.5-2.6L587.1,32c3.7-3.7,3.7-9.7,0-13.4l-2.2-2.2
		c-3.7-3.7-9.7-3.7-13.4,0l-15.1,15.1c-2.2,2.2-3.2,5.4-2.6,8.5l-39.3,41.7L478.3,43c5-10.8,0.3-23.6-10.5-28.6s-23.6-0.3-28.6,10.5
		s-0.3,23.6,10.5,28.6c5.7,2.7,12.4,2.7,18.1,0L506.9,90L439,162c-0.7,0.8-0.6,1.9,0.1,2.6c0.7,0.6,1.8,0.6,2.5,0l72.3-68.1
		l74.2,69.3c0.8,0.7,1.9,0.6,2.6-0.1C591.3,165,591.3,163.9,590.6,163.2L590.6,163.2z M557.2,41.8c0.5-0.5,0.6-1.2,0.4-1.8
		c-0.6-2.1-0.1-4.3,1.5-5.8l15-15.1c2.3-2.2,5.9-2.2,8.2,0l2.2,2.2c2.2,2.3,2.2,5.9,0,8.2l-15.1,15.1c-1.5,1.5-3.8,2.1-5.8,1.5
		c-0.6-0.2-1.3,0-1.8,0.4L519,86.6l-1.9-2.1L557.2,41.8z M446.2,46.6c-7-7-7-18.2,0-25.2s18.2-7,25.2,0s7,18.2,0,25.2
		c-3.3,3.3-7.9,5.2-12.6,5.2S449.5,49.9,446.2,46.6z M484,119.7l25.6-27.2l1.6,1.5L484,119.7z M515.3,92.8L515.3,92.8
		c0-0.1-0.1-0.2-0.1-0.2l-44-41c2-1.4,3.8-3.2,5.2-5.2l41.2,44.1l33.3,35.6L515.3,92.8z"/>
	<path class="st0" d="M562,42.5c1.9,1.9,4.9,1.9,6.7,0l13.8-13.8c1.9-1.9,1.9-4.9,0-6.7l-0.9-0.9c-1.9-1.9-4.9-1.9-6.7,0l-13.8,13.8
		c-1.9,1.9-1.9,4.9,0,6.7L562,42.5z M563.7,37.5l13.8-13.8c0.4-0.4,1-0.4,1.5,0l0.9,0.9c0.4,0.4,0.4,1,0,1.5L566,39.8
		c-0.4,0.4-1,0.4-1.5,0l-0.9-0.9C563.3,38.5,563.3,37.9,563.7,37.5z"/>
</g>
<text transform="matrix(1 0 0 1 14.309 646)" class="st4 st5 st6">MON TUTO COUTURE</text>
</svg>
