<svg xmlns="http://www.w3.org/2000/svg" viewBox="0 0 100.291 2.883">
  <defs>
    <style>
      .cls-1 {
        fill: #654EA3;
        fill-rule: evenodd;
      }
    </style>
  </defs>
  <g id="_12883-01" data-name="12883-01" transform="translate(-1.64 -2.25)">
    <path id="Tracé_66" data-name="Tracé 66" class="cls-1" d="M101.575,4.006c-.112-.005-.251-.005-.363,0,0-.034-.847,0-1.21-.034h0a2.785,2.785,0,0,1,.6-.068h0c.423,0,.423,0,0-.034.039-.016.039-.032,0-.048h0c-.726,0-.847-.044-1.391-.058h.968c.3,0,1.028-.029,1.452-.048s.363,0,0,0h-.363V3.58c-.415-.014-.819-.03-1.21-.048-.951-.024-1.881-.053-2.783-.087-.254-.007-.532-.007-.786,0h-.847c.3,0,.786,0,1.089-.029h.423c.164.009.38.009.544,0,0,0,.423,0,0-.034a2.847,2.847,0,0,0-.544-.029h0V3.319c.138,0,.285,0,.423,0,.282,0,.544-.012.726-.029.221,0,.444,0,.665,0s.493-.025.786-.024c.2.005.408.005.6,0V3.1h-.3c-.259-.017-.543-.032-.847-.044l-.786-.034c-.3,0-.544-.029-.968,0h0l-.3-.029c.881,0,1.737-.025,2.48-.063h.3c.218,0,.447,0,.665,0h-.665V2.9h-.423L98.49,2.845c-.14-.014-.33-.024-.544-.029h0l-1.452-.2c-.3,0-.786,0-1.089-.029l-.423-.029c-.026-.01-.026-.019,0-.029v0h0c0-.029-.363-.053,0-.082h0v.024s-.544,0-.847,0h-.242c-.9-.031-1.828-.056-2.783-.073l-2.42-.039H85.666c-.259,0-.527,0-.786,0h-.3c-.112.005-.251.005-.363,0H80.1c-.482,0-.97,0-1.452,0-.462-.005-.93-.005-1.391,0H75.684c0-.029-.6,0-.968,0H73.627c-.271-.009-.576-.009-.847,0h-.3a2.4,2.4,0,0,0,.423-.029c.06-.029,0,0,0-.029h0c-.644,0-1.292,0-1.936,0-.2,0-.408,0-.6,0-.6,0-1.211,0-1.815,0h-4.96c-.741-.01-1.5-.01-2.238,0H58.383c-.213-.007-.453-.007-.665,0H48.4c-1.247-.01-2.5-.01-3.751,0h0c-.642-.007-1.294-.007-1.936,0h-19.9c-.762-.009-1.537-.009-2.3,0s-1.511.016-2.238.034c-.8,0-1.587.009-2.359.024-.609.007-1.2.022-1.754.044-1.2.017-2.346.051-3.388.1a7.713,7.713,0,0,0-1.149.063H8.6c-.181,0-.726.053-1.149.053h.665c.121,0,0,0,0,.029-.132.013-.132.031,0,.044H7.326c-.3-.007-.612-.007-.907,0h3.69v.029s0,.029.363.034h.6c.178,0,.367,0,.544,0l-.423.039c-.423.039-.907,0-1.149.048a5.556,5.556,0,0,1-.786.044h0s-.363,0,0,.029h0s-1.936.068-2.359.135h2c.34,0,.688,0,1.028,0,.3.005.608.005.907,0,0,0,.726,0,.907.029h-.786c-.451.022-.94.038-1.452.048-.363,0-.665,0-1.028.029h0c-.332.007-.656.017-.968.029.267.01.58.01.847,0v.029c-.363,0-.6.053-1.089.068s-.665,0-.847.029h0s0,.029-.544.034H5.451c-.363,0-.847,0-1.089.024s.363,0,.544,0h.544c.121,0-1.331.179-1.633.218H3.031c-.181,0-.786.029-1.391.039.926-.005,1.856-.005,2.783,0h0a4.156,4.156,0,0,0,.786.044h0c-.363,0,0,.044-.484.053s0,.029,0,.044,0,0,.484,0c.421,0,.849,0,1.27,0h.363c1.033.029,2.114.045,3.206.048.217,0,.448,0,.665,0l3.085.039h.907c.091.017.091.036,0,.053-.841.053-1.78.1-2.783.126-.328.006-.637.018-.907.034,0,.066-.436.127-1.149.16h0c.421.005.849.005,1.27,0h2.178c.217,0,.448,0,.665,0h.665c.588.016,1.2.028,1.815.034.156,0,.328,0,.484,0h0c.576.012,1.141.026,1.694.044l-.484.029c-.484.029-.423,0-.423.039a14.044,14.044,0,0,0-1.512.184h-.3c-1.014.061-2.11.113-3.267.155h0c-.267,0-.5.016-.665.034-.484,0-.484.039-.847.048h-.544c.426.023.9.041,1.391.053h0l.363.029h1.815c.282.012.589.021.907.024h.423c.156,0,.328,0,.484,0l1.149.14h.907c.992.031,2.028.052,3.085.063s2.165.033,3.267.034c1.228.007,2.462.007,3.69,0h2.662q.816,0,1.633,0h0c.905.007,1.817.007,2.722,0,.32,0,.648,0,.968,0H51.608c.34,0,.688,0,1.028,0h4.718c.442,0,.889,0,1.331,0H84.577c.423,0,0,0,0-.024V5.07h3.993c.381.005.769.005,1.149,0,.421,0,.849,0,1.27,0h2.843a2.867,2.867,0,0,0,.423-.024c.159,0,.325,0,.484,0h.423a4.347,4.347,0,0,0,.484-.029h0s.3-.044.6-.053a1.682,1.682,0,0,0,.484-.039h0a10.123,10.123,0,0,0,1.089-.092h0A7.207,7.207,0,0,1,95.919,4.7a4.347,4.347,0,0,1,1.664-.152c.176-.005.369-.005.544,0-.423,0-.665-.039-1.149-.034h0s0-.048-.544-.053c-.687-.012-1.329-.037-1.875-.073-.423,0-.484,0-.363-.034s0-.044.484,0h0a6.672,6.672,0,0,1,.907-.029c.594-.02,1.232-.03,1.875-.029h.665c-.262.012-.585.012-.847,0h.363a4.029,4.029,0,0,0,.726-.034h0l.907-.029h.968a4.438,4.438,0,0,0,.847-.044l-.665.029h0c.264,0,.507-.012.665-.029h0a6.042,6.042,0,0,0,.665-.058h0C101.878,4.03,101.938,4.02,101.575,4.006ZM99.337,4.1h.786c-.26,0-.527,0-.786,0ZM70.361,5ZM28.983,2.26ZM37.815,2.26ZM42.292,2.26ZM98.853,3.788Zm-4.3.759ZM83.306,4.939ZM42.171,4.9Zm-19.6.1ZM96.312,2.792ZM67.881,4.8ZM17.429,4.717ZM16.945,4.064ZM7.326,3.657Zm82.09.706Zm-4.9.43ZM60.621,4.794ZM52.939,2.347ZM89.235,4.083Zm-69.87.687ZM20.03,4.7ZM23.055,2.41h0s0,.01,0,0Zm9.2-.087ZM54.148,2.366ZM93.227,3.885Zm-8.772.779ZM41.142,4.775ZM21.421,4.064ZM64.311,2.4Zm14.1.208Zm14.276.2Zm-6.9,1.533ZM69.03,4.6Zm-58.5-.967Zm5.384-.687h.544C16.288,2.94,16.09,2.94,15.916,2.946Zm19.237-.484h.363c-.34,0-.688,0-1.028,0h0c.21,0,.426,0,.6-.01ZM91.05,3.387Zm0,.116ZM91.654,3.764Zm-2.843-.039Zm-6.352.822Zm-27.948,0ZM15.191,3.682ZM84.577,4.373Zm-56.562.3ZM18.578,3.145Zm7.562-.58Zm19.479-.082ZM71.873,4.339ZM58.867,4.494ZM33.52,4.547ZM20.877,3.764ZM32.492,2.613Zm-15.244.909ZM20.7,3.169ZM29.1,4.446ZM86.271,3.551ZM72.659,4.112ZM37.15,2.7Zm5.5-.058ZM35.032,3.962ZM32.068,3.9ZM23.539,3.715ZM44.832,2.613ZM23.3,3.493Zm4.174.169Zm39.5-.648ZM83.367,3.5Zm-17.12.595ZM65.824,4.093ZM46.163,4.064Zm-8.59-1.209h0l-1.331.024h0C36.709,2.887,37.2,2.878,37.573,2.855Zm35.51.29Zm8.832.324Zm0-.034Zm-9.679.358Zm-15.3.319Zm-30.247-1.1ZM80.1,3.435ZM26.684,3.391ZM64.916,3.1Zm-18.753-.14ZM76.41,3.237ZM37.452,2.99ZM69.7,3.246Zm5.263.266Zm-32.183.213ZM34.065,3.58Zm38.292-.053Zm-2,.126ZM70.361,3.653Zm-24.2.1ZM58.262,3.169Zm6.715.048ZM59.472,3.943ZM35.274,3.353ZM72.78,3.353Zm1.331.029h0ZM38.3,3.44Zm27.767-.058ZM36.908,3.232Zm13.369.126c.139,0,.284,0,.423,0Zm6.049.184ZM56.326,3.493ZM60.682,3.459Zm-4.537-.082Zm-.968.063Zm-.847.039h0ZM40.114,3.251Zm0,0ZM42.594,3.2Zm6.533.242Zm-7.562-.193ZM38.3,3.217ZM52.636,3.58Zm9.739-.024h-.061l.061-.01ZM61.771,3.353Zm-1.694,0Zm-13.127,0h0s.121-.019,0-.024Zm-.484-.1s0-.019,0-.024Zm-3.025-.034ZM35.637,3.261Zm-2.117,0Zm1.089.044h0s0-.034,0-.039ZM41.263,3.483Zm12.1.155ZM53.362,3.512Zm7.441.15Zm6.049-.111Zm-3.388-.184Zm-2.117,0h0a4.857,4.857,0,0,1-.484-.044ZM60.258,3.367Zm-1.028,0Zm-7.017-.044ZM50.156,3.324Zm-7.017-.189Zm-8.288.189Zm7.38.111ZM44.53,3.435ZM46.95,3.575Zm4.477,0Zm.665.048Zm7.259-.3Zm-1.21-.1ZM51,3.246ZM42.957,3.043Zm-10.284.334ZM32.673,3.329Zm4.839.034ZM54.39,3.764ZM68.364,3.58Zm1.27-.053Zm.907,0ZM43.078,3.053ZM40.719,3.1ZM36.787,3.1Zm.847.363h0v0ZM49.732,3.653ZM50.821,3.8ZM68.969,3.57Zm.363-.063Zm5.021-.213c-.1,0-.206,0-.3,0h.3Zm-10.042,0h0Zm-5.5-.121Zm-14.7-.121Zm-7.38,0Zm-1.815,0Zm-5.747.213ZM34.065,3.459Zm9.618.213Zm4.174.048h0s-.06.034,0,.034ZM49.793,3.812Zm.847-.073Zm2.057,0Zm9.86-.106Zm1.754.092Zm1.149,0h0s0,.01.121.01ZM72.3,3.3ZM54.572,3.15Zm-3.993,0ZM36.121,3.449ZM38.118,3.595ZM42.957,3.672Zm5.626.1Zm23.169-.227h-.544c.1-.007.232-.01.363-.008a2.513,2.513,0,0,1,.3.018ZM60.621,3.15ZM42.473,2.951Zm-1.391,0ZM31.705,3.435Zm4.174.034Zm13.067.43ZM55,3.981ZM66.61,3.754Zm0,0ZM69.635,3.672Zm3.085-.044ZM64.856,3.145ZM50.458,3.1ZM40.114,2.932Zm-6.049.126Zm2.359.677Zm8.59.174Zm4.537.073ZM58.262,4.02ZM61.529,3.9Zm1.149,0Zm.907.039Zm0,0c.131.006.292.006.423,0h0s.3-.029.3-.019Zm1.452,0Zm.544,0Zm3.69-.184ZM73.93,3.59ZM76.41,3.657Zm.907-.15ZM67.336,3.271ZM64.311,3.1Zm-8.288-.048ZM53.241,3.019Zm-2.541,0ZM35.94,2.932Zm-9.679.092Zm1.754.45ZM37.392,3.725ZM53,3.933ZM62.981,3.933Zm4.235-.073Zm3.509-.121ZM76.773,3.595Zm.484-.082ZM78.043,3.512ZM68,3.145ZM60.016,3.1ZM35.819,2.922Zm-9.739.339ZM34.065,3.744Zm2-.082Zm8.469.324Zm6.715,0c-.094,0-.209,0-.3,0,0,0,0,.029,0,.024Zm12.1,0Zm2.722-.044-.121.029ZM78.164,3.251ZM63.4,3.038ZM43.139,2.855Zm-2.722-.077a1.833,1.833,0,0,1,.363.024A2.571,2.571,0,0,1,40.416,2.777ZM40.416,2.83ZM26.684,3.474ZM46.163,4.035ZM53.846,4.1ZM61.589,4.011Zm6.775,0h0a1.049,1.049,0,0,0,.121.019Zm2-.1ZM75.079,3.774ZM55.963,2.995ZM53.664,2.961ZM43.986,2.753ZM40.114,2.772ZM37.513,2.845Zm-.968,0h0c.156,0,.328,0,.484,0-.158-.013-.386-.018-.6-.015Zm-.484,0h.3a3.976,3.976,0,0,1-.423,0ZM34.911,2.937Zm-12.22.16ZM24.749,3.159ZM28.015,3.58Zm2.783.155ZM32.129,3.735ZM37.573,3.827Zm2.541.145Zm1.149,0Zm1.27.092Zm1.694,0Zm8.469.044Zm6.957,0Zm1.754-.039a4.116,4.116,0,0,1,.423,0ZM73.083,3.72Zm2,.092h0c-.142.014-.142.034,0,.048Zm1.936-.073Zm2.722-.484ZM67.336,3.014ZM54.027,2.927Zm-4.96,0ZM43.018,2.724ZM36.061,2.8Zm-1.875.073Zm0,0h0ZM32.855,2.9Zm-.6,0Zm-9.558.121Zm11.736.817c-.176-.005-.369-.005-.544,0h.544Zm9.2.271ZM48.1,4.16ZM61.045,4.16ZM73.809,3.769ZM83.367,3.5Zm-1.694-.2ZM62.013,2.98Zm-2.48-.053Zm-4.477-.058ZM52.636,2.869ZM46.163,2.84ZM45.8,2.671ZM37.634,2.758ZM24.507,3.241ZM24.507,3.377Zm-1.028.174Zm7.32.184Zm1.512.106c-.112.005-.251.005-.363,0h0c.225,0,.44-.007.6-.019Zm2.117,0c.2-.005.408-.005.6,0-.12,0-.243,0-.363,0ZM60.621,4.165ZM80.1,3.58h0ZM44.772,2.642Zm-10.707.15ZM25.051,2.884ZM23.3,2.942h-.484c.177,0,.367,0,.544,0Zm-1.331-.034Zm6.049.759Zm3.025.1Zm12.1.406ZM61.287,4.175ZM66.55,4.349Zm-.484-.116Zm6.473-.276ZM81.129,3.875ZM81.129,3.764Zm.847-.184Zm2,.063ZM85.424,3.5ZM83.972,3.377Zm.726,0Zm-15.728-.4ZM60.8,2.884Zm-3.932,0ZM54.027,2.8Zm0,0ZM51.85,2.709ZM51.305,2.748ZM49.974,2.8Zm-1.633,0h0s.061.024,0,.015ZM44.107,2.613Zm-5.384.058Zm-9.135.193Zm-1.573-.01c-.15.007-.334.007-.484,0Zm-6.049.029ZM23.841,3.367ZM20.091,3.367ZM19.728,3.445ZM20.212,3.488ZM22.268,3.643ZM23.115,3.836ZM23.841,3.836Zm9.5.411h0s.181-.034.121-.029Zm2.117.111Zm1.512-.029Zm7.38-.034Zm0,0Zm0-.1ZM64.311,4.291Zm2.3.131ZM68.546,4.131Zm4.96-.174h0s-.242,0-.181,0Zm7.622,0ZM85.605,3.474Zm0-.14ZM77.5,2.975c.115,0,.248,0,.363,0ZM76.955,2.975Zm-8.348-.058Zm-2.6-.082Zm-9.5,0Zm-4.416-.14h0ZM50.882,2.695Zm-1.452,0ZM35.214,2.613ZM30.435,2.835Zm0-.135ZM29.467,2.661Zm-7.017.131h.726c-.228,0-.454,0-.665.01ZM21.3,3.154ZM22.51,3.706Zm1.754.135ZM25.716,3.8Zm2.722-.034Zm.484,0ZM36.3,3.972Zm3.569.193c-.581-.007-1.173-.007-1.754,0h0c.32,0,.648,0,.968,0,.36,0,.72,0,1.028.019ZM33.823,4.378Zm.968,0ZM36.3,4.378ZM37.15,4.547ZM44.53,4.441Zm7.683-.2Zm14.216.3Zm1.089-.261Zm5.5-.184ZM81.673,3.778ZM84.819,3.73Zm-1.452-.484ZM81.794,3.1ZM79.677,3ZM60.682,2.782Zm-12.7-.1h0s.061,0,0,0ZM46.708,2.685ZM45.377,2.613Zm-3.993,0Zm-6.11,0h.786C35.815,2.6,35.521,2.6,35.274,2.613ZM19.546,3.58Zm11.01.329h0v0Zm.423.068Zm4.779.15h0c.156,0,.328,0,.484,0Zm-3.751.048Zm-3.025.092Zm0,.227Zm13.672-.222ZM48.7,4.426Zm9.256-.082Zm3.085-.029Zm2.178.174ZM64.493,4.489Zm0,0Zm5.626-.155ZM73.748,4.31ZM72.236,4.064ZM85.787,3.8Zm2-.242Zm-6.049-.435v0Zm0-.222Zm-1.391,0Zm-1.512,0h1.512c-.522,0-1.05,0-1.573,0h0c-.269-.01-.578-.01-.847,0h.907ZM75.805,2.932ZM60.682,2.685ZM43.018,2.492Zm-1.452,0ZM40.114,2.613ZM38.178,2.613ZM36.242,2.579Zm-14.7.256ZM19.607,2.995ZM20.756,3.188Zm-1.21.421ZM26.14,3.9ZM40.6,4.359h0ZM49.672,4.393ZM53.483,4.364Zm.907,0Zm2.964-.039Zm4.839.063Zm5.142.16h0ZM72.72,4.378Zm1.452-.087h.363l-.363,0ZM74.172,4.151Zm2.783-.087c.156,0,.328,0,.484,0h-.484Zm10.284-.411Zm0-.232Zm1.875-.59ZM79.556,2.753Zm-1.936.092ZM72.962,2.961Zm-3.993-.29ZM55.54,2.642h0ZM53.181,2.642ZM47.131,2.545ZM42.11,2.516ZM39.509,2.516Zm-3.448.068h0A.293.293,0,0,1,36,2.564Zm-1.633,0ZM34.065,2.506Zm-11.433.106Zm-4.416.126Zm2.178.116Zm0,.3h0c-.03,0-.072-.007-.121-.01ZM18.155,3.643Zm2.662.092Zm6.836.189ZM28.015,4.243ZM25.353,4.364Zm4.6.184Zm7.078.14ZM48.765,4.475Zm11.191.034Zm9.074,0Zm4.477-.077Zm13.732-.755Zm.786-.247ZM85.968,3.241Zm.665-.087Zm-1.27-.334ZM67.88,2.632Zm-3.509,0ZM53.725,2.41Zm-6.049.073Zm-1.512-.044Zm-29.218.227Zm-.423.048Zm3.872.484ZM38.541,4.683Zm15.728-.164ZM54.269,4.46Zm9.679.2Zm12.1-.16h0L75.5,4.475Zm.363-.131ZM76.773,4.368Zm-.726,0h0V4.339h0S75.5,4.31,75.5,4.325Zm8.53,0h-.484c.254.007.532.007.786,0Zm-.907-.087h0a4.116,4.116,0,0,0,.423,0Zm-4.658-.218Zm8.469-.943Zm4.356-.242ZM89.9,2.685Zm-1.815.068Zm-.726.164ZM77.438,2.671Zm-1.028.155ZM65.037,2.579ZM62.315,2.613ZM56.266,2.55Zm-4.053,0Zm0,0ZM44.348,2.4Zm-7.259.053ZM36.605,2.511ZM34.065,2.463ZM30.979,2.574Zm-4.235-.029Zm-7.2.614Zm-3.63.222h0Zm9.5.967ZM24.446,4.547Zm2.541.164-.6.029h0Zm1.028,0h0v0Zm6.049,0Zm3.509,0Zm20.084-.1ZM66.308,4.673Zm8.772-.16ZM75.563,4.514ZM77.8,4.291ZM81.189,4.364ZM81.976,4.518Zm2.3-.121ZM84.758,4.344Zm-1.331-.222h0c-.517-.01-1.056-.01-1.573,0h0Q82.64,4.118,83.427,4.122ZM88.146,3.841ZM92.138,3ZM90.687,2.7ZM89.053,2.7Zm-8.893.029ZM73.748,2.85Zm-3.932-.179h0v0Zm0-.039h-.423c.135,0,.288,0,.423,0ZM65.642,2.569Zm0,0Zm-.423,0ZM54.451,2.531ZM36.3,2.468ZM35.94,2.468ZM17.005,2.5ZM14.525,2.613Zm4.356.174Zm-1.452.14ZM17.913,3.159Zm-1.694.193ZM11.258,3.6ZM13.255,3.58ZM14.4,3.7ZM26.5,4.107Zm-2.42.218ZM34.065,4.712ZM38.239,4.765Zm43.313-.218ZM82.157,4.62ZM88.811,3.677ZM91.594,2.8Zm-7.017,0Zm-.968-.189ZM79.979,2.661ZM63.464,2.482Zm-9.316-.063ZM53.6,2.371Zm-4.174,0ZM35.577,2.41Zm-9.316,0Zm-2.42-.053h0s.06.039,0,.044Zm-3.388.179v.077h0Zm-3.811.4Zm-.726.111Zm-2.48.638Zm2,.029h.484a3.966,3.966,0,0,0-.484,0Zm1.391.082Zm1.331,0Zm6.715.285Zm6.049.624c-.186.014-.415.024-.665.029A6.121,6.121,0,0,0,30.919,4.707Zm24.2.048h0s-.06.019,0,.019Zm4.356,0Zm2.238-.1h0s-.06.024,0,.019Zm13.127-.039h0v0Zm3.388.053ZM82.459,4.6Zm6.049-1.388ZM90.2,2.637Zm-25.891-.2Zm-.786,0ZM62.315,2.472Zm-10.1-.082Zm-.544.048ZM31.1,2.414Zm0,0Zm-3.509-.044Zm-8.409.053h.847C19.751,2.419,19.462,2.419,19.183,2.424Zm-6.049.358h0s-.181,0-.181,0ZM15.251,2.956Zm.665.058Zm.847.082Zm-2.9.285ZM14.283,3.382Zm-4.416.068ZM17.247,3.822Zm.847.053h0Zm1.391.135ZM18.82,4.011Zm4.779.068Zm-1.149.469ZM24.446,4.857Zm.968,0ZM37.513,4.857ZM44.469,4.823Zm9.437-.189s.6-.024.786,0h0c-.337-.007-.691-.007-1.028,0ZM59.048,4.823ZM79.979,4.373ZM81.129,4.7Zm5.444-.044ZM88.509,4.436Zm.6-.58Zm5.565-.967ZM82.157,2.535ZM56.205,2.4ZM50.821,2.424Zm-7.2-.068Zm-1.21,0ZM37.634,2.332Zm0,0ZM36.424,2.3ZM31.947,2.3ZM25.9,2.41Zm0-.058Zm-9.981.479ZM14.4,3.048ZM16.582,3.121ZM16.158,3.271Zm-6.291.281Zm6.049.232Zm5.686.339h0ZM21.24,4.16ZM21.542,4.272Zm0,.3h-.786s.423-.019.665-.019ZM24.749,4.934Zm16.575-.106h0c-.32,0-.648,0-.968,0Zm13.127,0ZM56.266,4.828Zm8.953,0Zm8.227-.063ZM80.887,4.717Zm6.049.1ZM86.936,4.62Zm9.437-.967ZM96.373,3.653ZM90.747,3.232ZM96.131,3.1ZM84.879,2.492Zm-3.146.034Zm-9.86.087ZM65.4,2.419ZM39.207,2.337Zm-14.156,0Zm-4.477.116Zm-7.38.087Zm.6.353ZM14.4,3.067Zm1.028.073ZM14.525,3.285ZM9.867,3.73Zm1.391.024Zm1.21,0Zm4.174.111Zm4.416.527h0s-.3,0-.242.015Zm-1.815.2Zm36.3.252ZM79.314,4.6ZM81.794,4.717Zm6.715-.068Zm0,.116Zm1.633-.116Zm0-.232ZM93.832,4Zm2.48-.077Zm0-.334h-.484s.242-.01.544-.01ZM92.32,2.569ZM80.645,2.487ZM79.8,2.54ZM77.076,2.5ZM74.232,2.531Zm-1.149-.1Zm-.726.039Zm-6.049-.111ZM58.262,2.3Zm-3.206.024Zm-2.662-.034ZM51.426,2.294Zm-3.509.039h0ZM41.082,2.332Zm-.544,0ZM34.065,2.3ZM25.656,2.352Zm-.968,0c-.168.008-.376.008-.544,0ZM13.5,2.516ZM11.984,2.545Zm3.327.6c-.3,0-.607,0-.907,0C14.7,3.159,15.021,3.159,15.312,3.15ZM12.468,3.333ZM8.9,3.493Zm-1.331.155h.484c-.131-.006-.292-.006-.423,0Zm9.8,1.025ZM15.916,4.905ZM16.945,4.934Zm3.569.044Zm9.8-.044ZM30.8,4.983Zm.423,0Zm.968-.044ZM35.032,4.939Zm13.006-.063Zm4.537,0Zm10.949,0Zm3.932,0ZM70.845,4.929ZM74.232,4.833ZM82.7,4.833ZM87.48,4.8ZM88.267,4.8Zm5.142-.106Zm-.423-.484Zm0-.077ZM92.985,4.3ZM99.035,3.856ZM88.509,2.531Zm-7.683-.1c-.384-.014-.826-.014-1.21,0h1.21Zm-.726,0ZM71.994,2.434ZM71.994,2.434ZM26.684,2.274Zm-15.97.339ZM12.105,2.83Zm0,.174Zm0,.329ZM11.8,3.817Zm-.726,0Zm7.441.3Zm2.117.106h-.363a3.512,3.512,0,0,1,.363.015ZM40.9,4.91Zm10.828-.029ZM80.584,5Zm1.875-.16h.484c-.335.007-.66.016-.968.029ZM93.651,4.547ZM90.445,4.344ZM91.654,4.03ZM97.7,3.58ZM94.558,3.3Zm0-.106ZM97.038,2.879Zm-1.27-.121Zm-5.747-.266ZM84.516,2.429ZM65.34,2.308ZM49.853,2.255ZM25.656,2.279ZM14.767,2.4ZM10.412,2.661Zm0,0h0s.423.015.3.024Zm1.875.218Zm1.149.324h0s.3.029.3.024Zm-6.049.261ZM7.81,3.774Zm7.017.193ZM18.155,4.136ZM42.594,5.031Zm24.863-.039ZM68,4.891ZM78.951,5Zm.726-.164h0Zm6.594,0Zm1.089.131ZM95.1,4.484ZM90.868,4.373ZM92.38,4.31Zm2.964-.053h0c-.134-.005-.29-.005-.423,0ZM98.006,3.1ZM96.494,3.014ZM85.484,2.381Zm-.847,0ZM74.837,2.347ZM68.3,2.269h0v0ZM30.435,2.25ZM11.077,3.89Zm7.8.348ZM20.333,5.031ZM21.3,5.031Zm33.937-.077Zm.847,0ZM78.951,4.954ZM89.9,4.842ZM95.95,4.426Zm1.754-.75ZM95.95,3.387ZM95.284,3.358ZM97.341,3.135ZM97.341,2.651Zm-.484-.039ZM93.651,2.5Zm-6.533-.1Zm-13.49-.077ZM65.642,2.25Zm-3.69,0h0s-.06,0,0,.019ZM11.077,3.217Zm3.327.735Zm-1.391.324ZM13.86,4.683ZM12.105,4.746Zm2.722.2ZM21.966,5.1Zm68.963-.252Zm1.331.087ZM93.832,4.9Z" transform="translate(0 0)"/>
    <path id="Tracé_67" data-name="Tracé 67" class="cls-1" d="M18.12,6.09Z" transform="translate(83.213 -1.983)"/>
    <path id="Tracé_68" data-name="Tracé 68" class="cls-1" d="M17.7,7.13v.034c.091-.01.091-.024,0-.034Z" transform="translate(81.093 -2.52)"/>
    <path id="Tracé_69" data-name="Tracé 69" class="cls-1" d="M17.68,7.24Z" transform="translate(80.992 -2.577)"/>
    <path id="Tracé_70" data-name="Tracé 70" class="cls-1" d="M17.9,7.28s-.3,0,0,.029S17.842,7.29,17.9,7.28Z" transform="translate(81.435 -2.597)"/>
    <path id="Tracé_71" data-name="Tracé 71" class="cls-1" d="M17.1,6.7Z" transform="translate(77.94 -2.295)"/>
    <path id="Tracé_72" data-name="Tracé 72" class="cls-1" d="M15.05,8h0Z" transform="translate(67.712 -2.969)"/>
    <path id="Tracé_73" data-name="Tracé 73" class="cls-1" d="M18,6.348c.027-.016.027-.032,0-.048C18,6.315,18,6.329,18,6.348Z" transform="translate(82.607 -2.091)"/>
    <path id="Tracé_74" data-name="Tracé 74" class="cls-1" d="M18.1,6.778Z" transform="translate(83.112 -2.337)"/>
    <path id="Tracé_75" data-name="Tracé 75" class="cls-1" d="M17.46,7.7Z" transform="translate(79.881 -2.809)"/>
    <path id="Tracé_76" data-name="Tracé 76" class="cls-1" d="M17.583,7.637c-.117,0-.246,0-.363,0Z" transform="translate(78.669 -2.78)"/>
    <path id="Tracé_77" data-name="Tracé 77" class="cls-1" d="M17.9,4.7c-.13.018-.13.04,0,.058h0V4.715C17.9,4.7,17.962,4.71,17.9,4.7Z" transform="translate(81.617 -1.265)"/>
    <path id="Tracé_78" data-name="Tracé 78" class="cls-1" d="M18.115,2.55h0Z" transform="translate(79.83 -0.155)"/>
    <path id="Tracé_79" data-name="Tracé 79" class="cls-1" d="M17.538,2.38h0Z" transform="translate(78.109 -0.067)"/>
    <path id="Tracé_80" data-name="Tracé 80" class="cls-1" d="M17.86,3.25Z" transform="translate(81.901 -0.516)"/>
    <path id="Tracé_81" data-name="Tracé 81" class="cls-1" d="M17.382,4.58Z" transform="translate(79.354 -1.203)"/>
    <path id="Tracé_82" data-name="Tracé 82" class="cls-1" d="M17.193,2.683h.3c.3,0,.3,0,.363-.039s0-.024,0,0S17.132,2.669,17.193,2.683Z" transform="translate(78.515 -0.191)"/>
    <path id="Tracé_83" data-name="Tracé 83" class="cls-1" d="M16.817,2.445h-.968C15.91,2.445,16.273,2.436,16.817,2.445Z" transform="translate(71.691 -0.099)"/>
  </g>
</svg>
